{
    "asset" : {
        "generator" : "Khronos glTF Blender I/O v3.2.43",
        "version" : "2.0"
    },
    "scene" : 0,
    "scenes" : [
        {
            "name" : "Scene",
            "nodes" : [
                0
            ]
        }
    ],
    "nodes" : [
        {
            "mesh" : 0,
            "name" : "roadTile_020",
            "rotation" : [
                0.7071068286895752,
                0,
                0,
                0.7071067094802856
            ]
        }
    ],
    "materials" : [
        {
            "doubleSided" : true,
            "name" : "Alternate_Dirt",
            "pbrMetallicRoughness" : {
                "baseColorFactor" : [
                    0.7215690016746521,
                    0.564706027507782,
                    0.3960779905319214,
                    1
                ],
                "metallicFactor" : 0
            }
        },
        {
            "doubleSided" : true,
            "name" : "Grass",
            "pbrMetallicRoughness" : {
                "baseColorFactor" : [
                    0.5411760210990906,
                    0.7098039984703064,
                    0.2862749993801117,
                    1
                ],
                "metallicFactor" : 0
            }
        }
    ],
    "meshes" : [
        {
            "name" : "roadTile_020",
            "primitives" : [
                {
                    "attributes" : {
                        "POSITION" : 0,
                        "NORMAL" : 1,
                        "TEXCOORD_0" : 2
                    },
                    "indices" : 3,
                    "material" : 0
                },
                {
                    "attributes" : {
                        "POSITION" : 4,
                        "NORMAL" : 5,
                        "TEXCOORD_0" : 6
                    },
                    "indices" : 7,
                    "material" : 1
                }
            ]
        }
    ],
    "accessors" : [
        {
            "bufferView" : 0,
            "componentType" : 5126,
            "count" : 20,
            "max" : [
                1.0176199674606323,
                -0.588470995426178,
                0
            ],
            "min" : [
                0.7037829756736755,
                -0.902305006980896,
                -0.5537829995155334
            ],
            "type" : "VEC3"
        },
        {
            "bufferView" : 1,
            "componentType" : 5126,
            "count" : 20,
            "type" : "VEC3"
        },
        {
            "bufferView" : 2,
            "componentType" : 5126,
            "count" : 20,
            "type" : "VEC2"
        },
        {
            "bufferView" : 3,
            "componentType" : 5123,
            "count" : 30,
            "type" : "SCALAR"
        },
        {
            "bufferView" : 4,
            "componentType" : 5126,
            "count" : 94,
            "max" : [
                1.7214000225067139,
                0,
                -0.5537829995155334
            ],
            "min" : [
                0,
                -1.490779995918274,
                -2.622879981994629
            ],
            "type" : "VEC3"
        },
        {
            "bufferView" : 5,
            "componentType" : 5126,
            "count" : 94,
            "type" : "VEC3"
        },
        {
            "bufferView" : 6,
            "componentType" : 5126,
            "count" : 94,
            "type" : "VEC2"
        },
        {
            "bufferView" : 7,
            "componentType" : 5123,
            "count" : 150,
            "type" : "SCALAR"
        }
    ],
    "bufferViews" : [
        {
            "buffer" : 0,
            "byteLength" : 240,
            "byteOffset" : 0
        },
        {
            "buffer" : 0,
            "byteLength" : 240,
            "byteOffset" : 240
        },
        {
            "buffer" : 0,
            "byteLength" : 160,
            "byteOffset" : 480
        },
        {
            "buffer" : 0,
            "byteLength" : 60,
            "byteOffset" : 640
        },
        {
            "buffer" : 0,
            "byteLength" : 1128,
            "byteOffset" : 700
        },
        {
            "buffer" : 0,
            "byteLength" : 1128,
            "byteOffset" : 1828
        },
        {
            "buffer" : 0,
            "byteLength" : 752,
            "byteOffset" : 2956
        },
        {
            "buffer" : 0,
            "byteLength" : 300,
            "byteOffset" : 3708
        }
    ],
    "buffers" : [
        {
            "byteLength" : 4008,
            "uri" : "data:application/octet-stream;base64,"
        }
    ]
}
