{
    "asset" : {
        "generator" : "Khronos glTF Blender I/O v3.2.43",
        "version" : "2.0"
    },
    "scene" : 0,
    "scenes" : [
        {
            "name" : "Scene",
            "nodes" : [
                0
            ]
        }
    ],
    "nodes" : [
        {
            "mesh" : 0,
            "name" : "roadTile_106",
            "rotation" : [
                0.7071068286895752,
                0,
                0,
                0.7071067094802856
            ]
        }
    ],
    "materials" : [
        {
            "doubleSided" : true,
            "name" : "Asphalt",
            "pbrMetallicRoughness" : {
                "baseColorFactor" : [
                    0.4117650091648102,
                    0.4117650091648102,
                    0.4117650091648102,
                    1
                ],
                "metallicFactor" : 0
            }
        },
        {
            "doubleSided" : true,
            "name" : "Stone",
            "pbrMetallicRoughness" : {
                "baseColorFactor" : [
                    0.8470590114593506,
                    0.8274509906768799,
                    0.749019980430603,
                    1
                ],
                "metallicFactor" : 0
            }
        },
        {
            "doubleSided" : true,
            "name" : "Grey_Asphalt",
            "pbrMetallicRoughness" : {
                "baseColorFactor" : [
                    0.5607839822769165,
                    0.5686269998550415,
                    0.6000000238418579,
                    1
                ],
                "metallicFactor" : 0
            }
        }
    ],
    "meshes" : [
        {
            "name" : "roadTile_106",
            "primitives" : [
                {
                    "attributes" : {
                        "POSITION" : 0,
                        "NORMAL" : 1,
                        "TEXCOORD_0" : 2
                    },
                    "indices" : 3,
                    "material" : 0
                },
                {
                    "attributes" : {
                        "POSITION" : 4,
                        "NORMAL" : 5,
                        "TEXCOORD_0" : 6
                    },
                    "indices" : 7,
                    "material" : 1
                },
                {
                    "attributes" : {
                        "POSITION" : 8,
                        "NORMAL" : 9,
                        "TEXCOORD_0" : 10
                    },
                    "indices" : 11,
                    "material" : 2
                }
            ]
        }
    ],
    "accessors" : [
        {
            "bufferView" : 0,
            "componentType" : 5126,
            "count" : 20,
            "max" : [
                2.25,
                -1.1550600360617051e-14,
                -0.30000001192092896
            ],
            "min" : [
                0.75,
                -3,
                -0.6000000238418579
            ],
            "type" : "VEC3"
        },
        {
            "bufferView" : 1,
            "componentType" : 5126,
            "count" : 20,
            "type" : "VEC3"
        },
        {
            "bufferView" : 2,
            "componentType" : 5126,
            "count" : 20,
            "type" : "VEC2"
        },
        {
            "bufferView" : 3,
            "componentType" : 5123,
            "count" : 30,
            "type" : "SCALAR"
        },
        {
            "bufferView" : 4,
            "componentType" : 5126,
            "count" : 96,
            "max" : [
                3,
                0,
                0
            ],
            "min" : [
                0,
                -3,
                -0.6299999952316284
            ],
            "type" : "VEC3"
        },
        {
            "bufferView" : 5,
            "componentType" : 5126,
            "count" : 96,
            "type" : "VEC3"
        },
        {
            "bufferView" : 6,
            "componentType" : 5126,
            "count" : 96,
            "type" : "VEC2"
        },
        {
            "bufferView" : 7,
            "componentType" : 5123,
            "count" : 186,
            "type" : "SCALAR"
        },
        {
            "bufferView" : 8,
            "componentType" : 5126,
            "count" : 40,
            "max" : [
                3,
                -0.9375,
                -0.5699999928474426
            ],
            "min" : [
                0,
                -2.0625,
                -0.6299999952316284
            ],
            "type" : "VEC3"
        },
        {
            "bufferView" : 9,
            "componentType" : 5126,
            "count" : 40,
            "type" : "VEC3"
        },
        {
            "bufferView" : 10,
            "componentType" : 5126,
            "count" : 40,
            "type" : "VEC2"
        },
        {
            "bufferView" : 11,
            "componentType" : 5123,
            "count" : 84,
            "type" : "SCALAR"
        }
    ],
    "bufferViews" : [
        {
            "buffer" : 0,
            "byteLength" : 240,
            "byteOffset" : 0
        },
        {
            "buffer" : 0,
            "byteLength" : 240,
            "byteOffset" : 240
        },
        {
            "buffer" : 0,
            "byteLength" : 160,
            "byteOffset" : 480
        },
        {
            "buffer" : 0,
            "byteLength" : 60,
            "byteOffset" : 640
        },
        {
            "buffer" : 0,
            "byteLength" : 1152,
            "byteOffset" : 700
        },
        {
            "buffer" : 0,
            "byteLength" : 1152,
            "byteOffset" : 1852
        },
        {
            "buffer" : 0,
            "byteLength" : 768,
            "byteOffset" : 3004
        },
        {
            "buffer" : 0,
            "byteLength" : 372,
            "byteOffset" : 3772
        },
        {
            "buffer" : 0,
            "byteLength" : 480,
            "byteOffset" : 4144
        },
        {
            "buffer" : 0,
            "byteLength" : 480,
            "byteOffset" : 4624
        },
        {
            "buffer" : 0,
            "byteLength" : 320,
            "byteOffset" : 5104
        },
        {
            "buffer" : 0,
            "byteLength" : 168,
            "byteOffset" : 5424
        }
    ],
    "buffers" : [
        {
            "byteLength" : 5592,
            "uri" : "data:application/octet-stream;base64,"
        }
    ]
}
