{
    "asset" : {
        "generator" : "Khronos glTF Blender I/O v3.2.43",
        "version" : "2.0"
    },
    "scene" : 0,
    "scenes" : [
        {
            "name" : "Scene",
            "nodes" : [
                0
            ]
        }
    ],
    "nodes" : [
        {
            "mesh" : 0,
            "name" : "roadTile_022",
            "rotation" : [
                0.7071068286895752,
                0,
                0,
                0.7071067094802856
            ]
        }
    ],
    "materials" : [
        {
            "doubleSided" : true,
            "name" : "Alternate_Dirt",
            "pbrMetallicRoughness" : {
                "baseColorFactor" : [
                    0.7215690016746521,
                    0.564706027507782,
                    0.3960779905319214,
                    1
                ],
                "metallicFactor" : 0
            }
        },
        {
            "doubleSided" : true,
            "name" : "Grass",
            "pbrMetallicRoughness" : {
                "baseColorFactor" : [
                    0.5411760210990906,
                    0.7098039984703064,
                    0.2862749993801117,
                    1
                ],
                "metallicFactor" : 0
            }
        }
    ],
    "meshes" : [
        {
            "name" : "roadTile_022",
            "primitives" : [
                {
                    "attributes" : {
                        "POSITION" : 0,
                        "NORMAL" : 1,
                        "TEXCOORD_0" : 2
                    },
                    "indices" : 3,
                    "material" : 0
                },
                {
                    "attributes" : {
                        "POSITION" : 4,
                        "NORMAL" : 5,
                        "TEXCOORD_0" : 6
                    },
                    "indices" : 7,
                    "material" : 1
                }
            ]
        }
    ],
    "accessors" : [
        {
            "bufferView" : 0,
            "componentType" : 5126,
            "count" : 35,
            "max" : [
                3,
                -0.75,
                -0.30000001192092896
            ],
            "min" : [
                0.75,
                -3,
                -0.550000011920929
            ],
            "type" : "VEC3"
        },
        {
            "bufferView" : 1,
            "componentType" : 5126,
            "count" : 35,
            "type" : "VEC3"
        },
        {
            "bufferView" : 2,
            "componentType" : 5126,
            "count" : 35,
            "type" : "VEC2"
        },
        {
            "bufferView" : 3,
            "componentType" : 5123,
            "count" : 57,
            "type" : "SCALAR"
        },
        {
            "bufferView" : 4,
            "componentType" : 5126,
            "count" : 43,
            "max" : [
                3,
                0,
                0
            ],
            "min" : [
                0,
                -3,
                -0.550000011920929
            ],
            "type" : "VEC3"
        },
        {
            "bufferView" : 5,
            "componentType" : 5126,
            "count" : 43,
            "type" : "VEC3"
        },
        {
            "bufferView" : 6,
            "componentType" : 5126,
            "count" : 43,
            "type" : "VEC2"
        },
        {
            "bufferView" : 7,
            "componentType" : 5123,
            "count" : 87,
            "type" : "SCALAR"
        }
    ],
    "bufferViews" : [
        {
            "buffer" : 0,
            "byteLength" : 420,
            "byteOffset" : 0
        },
        {
            "buffer" : 0,
            "byteLength" : 420,
            "byteOffset" : 420
        },
        {
            "buffer" : 0,
            "byteLength" : 280,
            "byteOffset" : 840
        },
        {
            "buffer" : 0,
            "byteLength" : 114,
            "byteOffset" : 1120
        },
        {
            "buffer" : 0,
            "byteLength" : 516,
            "byteOffset" : 1236
        },
        {
            "buffer" : 0,
            "byteLength" : 516,
            "byteOffset" : 1752
        },
        {
            "buffer" : 0,
            "byteLength" : 344,
            "byteOffset" : 2268
        },
        {
            "buffer" : 0,
            "byteLength" : 174,
            "byteOffset" : 2612
        }
    ],
    "buffers" : [
        {
            "byteLength" : 2788,
            "uri" : "data:application/octet-stream;base64,"
        }
    ]
}
