{
    "asset" : {
        "generator" : "Khronos glTF Blender I/O v3.2.43",
        "version" : "2.0"
    },
    "scene" : 0,
    "scenes" : [
        {
            "name" : "Scene",
            "nodes" : [
                0
            ]
        }
    ],
    "nodes" : [
        {
            "mesh" : 0,
            "name" : "roadTile_148",
            "rotation" : [
                0.7071068286895752,
                0,
                0,
                0.7071067094802856
            ]
        }
    ],
    "materials" : [
        {
            "doubleSided" : true,
            "name" : "Grass",
            "pbrMetallicRoughness" : {
                "baseColorFactor" : [
                    0.5411760210990906,
                    0.7098039984703064,
                    0.2862749993801117,
                    1
                ],
                "metallicFactor" : 0
            }
        },
        {
            "doubleSided" : true,
            "name" : "Stone",
            "pbrMetallicRoughness" : {
                "baseColorFactor" : [
                    0.8470590114593506,
                    0.8274509906768799,
                    0.749019980430603,
                    1
                ],
                "metallicFactor" : 0
            }
        },
        {
            "doubleSided" : true,
            "name" : "Asphalt",
            "pbrMetallicRoughness" : {
                "baseColorFactor" : [
                    0.4117650091648102,
                    0.4117650091648102,
                    0.4117650091648102,
                    1
                ],
                "metallicFactor" : 0
            }
        }
    ],
    "meshes" : [
        {
            "name" : "roadTile_148",
            "primitives" : [
                {
                    "attributes" : {
                        "POSITION" : 0,
                        "NORMAL" : 1,
                        "TEXCOORD_0" : 2
                    },
                    "indices" : 3,
                    "material" : 0
                },
                {
                    "attributes" : {
                        "POSITION" : 4,
                        "NORMAL" : 5,
                        "TEXCOORD_0" : 6
                    },
                    "indices" : 7,
                    "material" : 1
                },
                {
                    "attributes" : {
                        "POSITION" : 8,
                        "NORMAL" : 9,
                        "TEXCOORD_0" : 10
                    },
                    "indices" : 11,
                    "material" : 2
                }
            ]
        }
    ],
    "accessors" : [
        {
            "bufferView" : 0,
            "componentType" : 5126,
            "count" : 81,
            "max" : [
                3,
                0,
                0
            ],
            "min" : [
                0,
                -3,
                -0.550000011920929
            ],
            "type" : "VEC3"
        },
        {
            "bufferView" : 1,
            "componentType" : 5126,
            "count" : 81,
            "type" : "VEC3"
        },
        {
            "bufferView" : 2,
            "componentType" : 5126,
            "count" : 81,
            "type" : "VEC2"
        },
        {
            "bufferView" : 3,
            "componentType" : 5123,
            "count" : 177,
            "type" : "SCALAR"
        },
        {
            "bufferView" : 4,
            "componentType" : 5126,
            "count" : 430,
            "max" : [
                3,
                0,
                0
            ],
            "min" : [
                0.5625,
                -3,
                -0.6299999952316284
            ],
            "type" : "VEC3"
        },
        {
            "bufferView" : 5,
            "componentType" : 5126,
            "count" : 430,
            "type" : "VEC3"
        },
        {
            "bufferView" : 6,
            "componentType" : 5126,
            "count" : 430,
            "type" : "VEC2"
        },
        {
            "bufferView" : 7,
            "componentType" : 5123,
            "count" : 798,
            "type" : "SCALAR"
        },
        {
            "bufferView" : 8,
            "componentType" : 5126,
            "count" : 55,
            "max" : [
                3,
                0,
                -0.30000001192092896
            ],
            "min" : [
                1.125,
                -3,
                -0.6000000238418579
            ],
            "type" : "VEC3"
        },
        {
            "bufferView" : 9,
            "componentType" : 5126,
            "count" : 55,
            "type" : "VEC3"
        },
        {
            "bufferView" : 10,
            "componentType" : 5126,
            "count" : 55,
            "type" : "VEC2"
        },
        {
            "bufferView" : 11,
            "componentType" : 5123,
            "count" : 141,
            "type" : "SCALAR"
        }
    ],
    "bufferViews" : [
        {
            "buffer" : 0,
            "byteLength" : 972,
            "byteOffset" : 0
        },
        {
            "buffer" : 0,
            "byteLength" : 972,
            "byteOffset" : 972
        },
        {
            "buffer" : 0,
            "byteLength" : 648,
            "byteOffset" : 1944
        },
        {
            "buffer" : 0,
            "byteLength" : 354,
            "byteOffset" : 2592
        },
        {
            "buffer" : 0,
            "byteLength" : 5160,
            "byteOffset" : 2948
        },
        {
            "buffer" : 0,
            "byteLength" : 5160,
            "byteOffset" : 8108
        },
        {
            "buffer" : 0,
            "byteLength" : 3440,
            "byteOffset" : 13268
        },
        {
            "buffer" : 0,
            "byteLength" : 1596,
            "byteOffset" : 16708
        },
        {
            "buffer" : 0,
            "byteLength" : 660,
            "byteOffset" : 18304
        },
        {
            "buffer" : 0,
            "byteLength" : 660,
            "byteOffset" : 18964
        },
        {
            "buffer" : 0,
            "byteLength" : 440,
            "byteOffset" : 19624
        },
        {
            "buffer" : 0,
            "byteLength" : 282,
            "byteOffset" : 20064
        }
    ],
    "buffers" : [
        {
            "byteLength" : 20348,
            "uri" : "data:application/octet-stream;base64,"
        }
    ]
}
