{
    "asset" : {
        "generator" : "Khronos glTF Blender I/O v3.2.43",
        "version" : "2.0"
    },
    "scene" : 0,
    "scenes" : [
        {
            "name" : "Scene",
            "nodes" : [
                0
            ]
        }
    ],
    "nodes" : [
        {
            "mesh" : 0,
            "name" : "roadTile_049",
            "rotation" : [
                0.7071068286895752,
                0,
                0,
                0.7071067094802856
            ]
        }
    ],
    "materials" : [
        {
            "doubleSided" : true,
            "name" : "Stone",
            "pbrMetallicRoughness" : {
                "baseColorFactor" : [
                    0.8470590114593506,
                    0.8274509906768799,
                    0.749019980430603,
                    1
                ],
                "metallicFactor" : 0
            }
        },
        {
            "doubleSided" : true,
            "name" : "Asphalt",
            "pbrMetallicRoughness" : {
                "baseColorFactor" : [
                    0.4117650091648102,
                    0.4117650091648102,
                    0.4117650091648102,
                    1
                ],
                "metallicFactor" : 0
            }
        },
        {
            "doubleSided" : true,
            "name" : "Grass",
            "pbrMetallicRoughness" : {
                "baseColorFactor" : [
                    0.5411760210990906,
                    0.7098039984703064,
                    0.2862749993801117,
                    1
                ],
                "metallicFactor" : 0
            }
        }
    ],
    "meshes" : [
        {
            "name" : "roadTile_049",
            "primitives" : [
                {
                    "attributes" : {
                        "POSITION" : 0,
                        "NORMAL" : 1,
                        "TEXCOORD_0" : 2
                    },
                    "indices" : 3,
                    "material" : 0
                },
                {
                    "attributes" : {
                        "POSITION" : 4,
                        "NORMAL" : 5,
                        "TEXCOORD_0" : 6
                    },
                    "indices" : 7,
                    "material" : 1
                },
                {
                    "attributes" : {
                        "POSITION" : 8,
                        "NORMAL" : 9,
                        "TEXCOORD_0" : 10
                    },
                    "indices" : 11,
                    "material" : 2
                }
            ]
        }
    ],
    "accessors" : [
        {
            "bufferView" : 0,
            "componentType" : 5126,
            "count" : 76,
            "max" : [
                2.2523701190948486,
                0,
                -1.0374099718374677e-13
            ],
            "min" : [
                1.1140500077999604e-08,
                -2.2523701190948486,
                -0.6299999952316284
            ],
            "type" : "VEC3"
        },
        {
            "bufferView" : 1,
            "componentType" : 5126,
            "count" : 76,
            "type" : "VEC3"
        },
        {
            "bufferView" : 2,
            "componentType" : 5126,
            "count" : 76,
            "type" : "VEC2"
        },
        {
            "bufferView" : 3,
            "componentType" : 5123,
            "count" : 144,
            "type" : "SCALAR"
        },
        {
            "bufferView" : 4,
            "componentType" : 5126,
            "count" : 16,
            "max" : [
                1.9029300212860107,
                -2.3101200721234103e-14,
                -0.30000001192092896
            ],
            "min" : [
                1.6347600606536616e-08,
                -1.9029300212860107,
                -0.6000000238418579
            ],
            "type" : "VEC3"
        },
        {
            "bufferView" : 5,
            "componentType" : 5126,
            "count" : 16,
            "type" : "VEC3"
        },
        {
            "bufferView" : 6,
            "componentType" : 5126,
            "count" : 16,
            "type" : "VEC2"
        },
        {
            "bufferView" : 7,
            "componentType" : 5123,
            "count" : 30,
            "type" : "SCALAR"
        },
        {
            "bufferView" : 8,
            "componentType" : 5126,
            "count" : 30,
            "max" : [
                3,
                0,
                0
            ],
            "min" : [
                0,
                -3,
                -0.550000011920929
            ],
            "type" : "VEC3"
        },
        {
            "bufferView" : 9,
            "componentType" : 5126,
            "count" : 30,
            "type" : "VEC3"
        },
        {
            "bufferView" : 10,
            "componentType" : 5126,
            "count" : 30,
            "type" : "VEC2"
        },
        {
            "bufferView" : 11,
            "componentType" : 5123,
            "count" : 54,
            "type" : "SCALAR"
        }
    ],
    "bufferViews" : [
        {
            "buffer" : 0,
            "byteLength" : 912,
            "byteOffset" : 0
        },
        {
            "buffer" : 0,
            "byteLength" : 912,
            "byteOffset" : 912
        },
        {
            "buffer" : 0,
            "byteLength" : 608,
            "byteOffset" : 1824
        },
        {
            "buffer" : 0,
            "byteLength" : 288,
            "byteOffset" : 2432
        },
        {
            "buffer" : 0,
            "byteLength" : 192,
            "byteOffset" : 2720
        },
        {
            "buffer" : 0,
            "byteLength" : 192,
            "byteOffset" : 2912
        },
        {
            "buffer" : 0,
            "byteLength" : 128,
            "byteOffset" : 3104
        },
        {
            "buffer" : 0,
            "byteLength" : 60,
            "byteOffset" : 3232
        },
        {
            "buffer" : 0,
            "byteLength" : 360,
            "byteOffset" : 3292
        },
        {
            "buffer" : 0,
            "byteLength" : 360,
            "byteOffset" : 3652
        },
        {
            "buffer" : 0,
            "byteLength" : 240,
            "byteOffset" : 4012
        },
        {
            "buffer" : 0,
            "byteLength" : 108,
            "byteOffset" : 4252
        }
    ],
    "buffers" : [
        {
            "byteLength" : 4360,
            "uri" : "data:application/octet-stream;base64,"
        }
    ]
}
