{
    "asset" : {
        "generator" : "Khronos glTF Blender I/O v3.2.43",
        "version" : "2.0"
    },
    "scene" : 0,
    "scenes" : [
        {
            "name" : "Scene",
            "nodes" : [
                0
            ]
        }
    ],
    "nodes" : [
        {
            "mesh" : 0,
            "name" : "roadTile_043",
            "rotation" : [
                0.7071068286895752,
                0,
                0,
                0.7071067094802856
            ]
        }
    ],
    "materials" : [
        {
            "doubleSided" : true,
            "name" : "Stone",
            "pbrMetallicRoughness" : {
                "baseColorFactor" : [
                    0.8470590114593506,
                    0.8274509906768799,
                    0.749019980430603,
                    1
                ],
                "metallicFactor" : 0
            }
        },
        {
            "doubleSided" : true,
            "name" : "Grass",
            "pbrMetallicRoughness" : {
                "baseColorFactor" : [
                    0.5411760210990906,
                    0.7098039984703064,
                    0.2862749993801117,
                    1
                ],
                "metallicFactor" : 0
            }
        },
        {
            "doubleSided" : true,
            "name" : "Asphalt",
            "pbrMetallicRoughness" : {
                "baseColorFactor" : [
                    0.4117650091648102,
                    0.4117650091648102,
                    0.4117650091648102,
                    1
                ],
                "metallicFactor" : 0
            }
        }
    ],
    "meshes" : [
        {
            "name" : "roadTile_043",
            "primitives" : [
                {
                    "attributes" : {
                        "POSITION" : 0,
                        "NORMAL" : 1,
                        "TEXCOORD_0" : 2
                    },
                    "indices" : 3,
                    "material" : 0
                },
                {
                    "attributes" : {
                        "POSITION" : 4,
                        "NORMAL" : 5,
                        "TEXCOORD_0" : 6
                    },
                    "indices" : 7,
                    "material" : 1
                },
                {
                    "attributes" : {
                        "POSITION" : 8,
                        "NORMAL" : 9,
                        "TEXCOORD_0" : 10
                    },
                    "indices" : 11,
                    "material" : 2
                }
            ]
        }
    ],
    "accessors" : [
        {
            "bufferView" : 0,
            "componentType" : 5126,
            "count" : 162,
            "max" : [
                3,
                0,
                -2.263870040324252e-14
            ],
            "min" : [
                1.3968099565886405e-08,
                -3,
                -0.6299999952316284
            ],
            "type" : "VEC3"
        },
        {
            "bufferView" : 1,
            "componentType" : 5126,
            "count" : 162,
            "type" : "VEC3"
        },
        {
            "bufferView" : 2,
            "componentType" : 5126,
            "count" : 162,
            "type" : "VEC2"
        },
        {
            "bufferView" : 3,
            "componentType" : 5123,
            "count" : 306,
            "type" : "SCALAR"
        },
        {
            "bufferView" : 4,
            "componentType" : 5126,
            "count" : 45,
            "max" : [
                3,
                0,
                0
            ],
            "min" : [
                0,
                -3,
                -0.550000011920929
            ],
            "type" : "VEC3"
        },
        {
            "bufferView" : 5,
            "componentType" : 5126,
            "count" : 45,
            "type" : "VEC3"
        },
        {
            "bufferView" : 6,
            "componentType" : 5126,
            "count" : 45,
            "type" : "VEC2"
        },
        {
            "bufferView" : 7,
            "componentType" : 5123,
            "count" : 81,
            "type" : "SCALAR"
        },
        {
            "bufferView" : 8,
            "componentType" : 5126,
            "count" : 27,
            "max" : [
                2.8391900062561035,
                -4.6202299798514535e-14,
                -0.2750000059604645
            ],
            "min" : [
                2.2436500657363467e-08,
                -3,
                -0.6000000238418579
            ],
            "type" : "VEC3"
        },
        {
            "bufferView" : 9,
            "componentType" : 5126,
            "count" : 27,
            "type" : "VEC3"
        },
        {
            "bufferView" : 10,
            "componentType" : 5126,
            "count" : 27,
            "type" : "VEC2"
        },
        {
            "bufferView" : 11,
            "componentType" : 5123,
            "count" : 57,
            "type" : "SCALAR"
        }
    ],
    "bufferViews" : [
        {
            "buffer" : 0,
            "byteLength" : 1944,
            "byteOffset" : 0
        },
        {
            "buffer" : 0,
            "byteLength" : 1944,
            "byteOffset" : 1944
        },
        {
            "buffer" : 0,
            "byteLength" : 1296,
            "byteOffset" : 3888
        },
        {
            "buffer" : 0,
            "byteLength" : 612,
            "byteOffset" : 5184
        },
        {
            "buffer" : 0,
            "byteLength" : 540,
            "byteOffset" : 5796
        },
        {
            "buffer" : 0,
            "byteLength" : 540,
            "byteOffset" : 6336
        },
        {
            "buffer" : 0,
            "byteLength" : 360,
            "byteOffset" : 6876
        },
        {
            "buffer" : 0,
            "byteLength" : 162,
            "byteOffset" : 7236
        },
        {
            "buffer" : 0,
            "byteLength" : 324,
            "byteOffset" : 7400
        },
        {
            "buffer" : 0,
            "byteLength" : 324,
            "byteOffset" : 7724
        },
        {
            "buffer" : 0,
            "byteLength" : 216,
            "byteOffset" : 8048
        },
        {
            "buffer" : 0,
            "byteLength" : 114,
            "byteOffset" : 8264
        }
    ],
    "buffers" : [
        {
            "byteLength" : 8380,
            "uri" : "data:application/octet-stream;base64,"
        }
    ]
}
