{
    "asset" : {
        "generator" : "Khronos glTF Blender I/O v3.2.43",
        "version" : "2.0"
    },
    "scene" : 0,
    "scenes" : [
        {
            "name" : "Scene",
            "nodes" : [
                0
            ]
        }
    ],
    "nodes" : [
        {
            "mesh" : 0,
            "name" : "roadTile_284",
            "rotation" : [
                0.7071068286895752,
                0,
                0,
                0.7071067094802856
            ]
        }
    ],
    "materials" : [
        {
            "doubleSided" : true,
            "name" : "Stone",
            "pbrMetallicRoughness" : {
                "baseColorFactor" : [
                    0.8470590114593506,
                    0.8274509906768799,
                    0.749019980430603,
                    1
                ],
                "metallicFactor" : 0
            }
        },
        {
            "doubleSided" : true,
            "name" : "Grass",
            "pbrMetallicRoughness" : {
                "baseColorFactor" : [
                    0.5411760210990906,
                    0.7098039984703064,
                    0.2862749993801117,
                    1
                ],
                "metallicFactor" : 0
            }
        },
        {
            "doubleSided" : true,
            "name" : "Sand",
            "pbrMetallicRoughness" : {
                "baseColorFactor" : [
                    0.9686269760131836,
                    0.9176470041275024,
                    0.7450979948043823,
                    1
                ],
                "metallicFactor" : 0
            }
        },
        {
            "doubleSided" : true,
            "name" : "Water",
            "pbrMetallicRoughness" : {
                "baseColorFactor" : [
                    0.6901959776878357,
                    0.8431370258331299,
                    0.9647060036659241,
                    1
                ],
                "metallicFactor" : 0
            }
        }
    ],
    "meshes" : [
        {
            "name" : "roadTile_284",
            "primitives" : [
                {
                    "attributes" : {
                        "POSITION" : 0,
                        "NORMAL" : 1,
                        "TEXCOORD_0" : 2
                    },
                    "indices" : 3,
                    "material" : 0
                },
                {
                    "attributes" : {
                        "POSITION" : 4,
                        "NORMAL" : 5,
                        "TEXCOORD_0" : 6
                    },
                    "indices" : 7,
                    "material" : 1
                },
                {
                    "attributes" : {
                        "POSITION" : 8,
                        "NORMAL" : 9,
                        "TEXCOORD_0" : 10
                    },
                    "indices" : 11,
                    "material" : 2
                },
                {
                    "attributes" : {
                        "POSITION" : 12,
                        "NORMAL" : 13,
                        "TEXCOORD_0" : 14
                    },
                    "indices" : 15,
                    "material" : 3
                }
            ]
        }
    ],
    "accessors" : [
        {
            "bufferView" : 0,
            "componentType" : 5126,
            "count" : 134,
            "max" : [
                3,
                -0.375,
                -3.6095599657148683e-16
            ],
            "min" : [
                0.375,
                -3,
                -0.6299999952316284
            ],
            "type" : "VEC3"
        },
        {
            "bufferView" : 1,
            "componentType" : 5126,
            "count" : 134,
            "type" : "VEC3"
        },
        {
            "bufferView" : 2,
            "componentType" : 5126,
            "count" : 134,
            "type" : "VEC2"
        },
        {
            "bufferView" : 3,
            "componentType" : 5123,
            "count" : 240,
            "type" : "SCALAR"
        },
        {
            "bufferView" : 4,
            "componentType" : 5126,
            "count" : 42,
            "max" : [
                3,
                0,
                0
            ],
            "min" : [
                0,
                -3,
                -0.550000011920929
            ],
            "type" : "VEC3"
        },
        {
            "bufferView" : 5,
            "componentType" : 5126,
            "count" : 42,
            "type" : "VEC3"
        },
        {
            "bufferView" : 6,
            "componentType" : 5126,
            "count" : 42,
            "type" : "VEC2"
        },
        {
            "bufferView" : 7,
            "componentType" : 5123,
            "count" : 90,
            "type" : "SCALAR"
        },
        {
            "bufferView" : 8,
            "componentType" : 5126,
            "count" : 34,
            "max" : [
                3,
                -0.75,
                -5.414339948572303e-16
            ],
            "min" : [
                0.75,
                -3,
                -0.45500001311302185
            ],
            "type" : "VEC3"
        },
        {
            "bufferView" : 9,
            "componentType" : 5126,
            "count" : 34,
            "type" : "VEC3"
        },
        {
            "bufferView" : 10,
            "componentType" : 5126,
            "count" : 34,
            "type" : "VEC2"
        },
        {
            "bufferView" : 11,
            "componentType" : 5123,
            "count" : 84,
            "type" : "SCALAR"
        },
        {
            "bufferView" : 12,
            "componentType" : 5126,
            "count" : 22,
            "max" : [
                3,
                -1.875,
                -1.4438199628794479e-15
            ],
            "min" : [
                1.875,
                -3,
                -0.45500001311302185
            ],
            "type" : "VEC3"
        },
        {
            "bufferView" : 13,
            "componentType" : 5126,
            "count" : 22,
            "type" : "VEC3"
        },
        {
            "bufferView" : 14,
            "componentType" : 5126,
            "count" : 22,
            "type" : "VEC2"
        },
        {
            "bufferView" : 15,
            "componentType" : 5123,
            "count" : 48,
            "type" : "SCALAR"
        }
    ],
    "bufferViews" : [
        {
            "buffer" : 0,
            "byteLength" : 1608,
            "byteOffset" : 0
        },
        {
            "buffer" : 0,
            "byteLength" : 1608,
            "byteOffset" : 1608
        },
        {
            "buffer" : 0,
            "byteLength" : 1072,
            "byteOffset" : 3216
        },
        {
            "buffer" : 0,
            "byteLength" : 480,
            "byteOffset" : 4288
        },
        {
            "buffer" : 0,
            "byteLength" : 504,
            "byteOffset" : 4768
        },
        {
            "buffer" : 0,
            "byteLength" : 504,
            "byteOffset" : 5272
        },
        {
            "buffer" : 0,
            "byteLength" : 336,
            "byteOffset" : 5776
        },
        {
            "buffer" : 0,
            "byteLength" : 180,
            "byteOffset" : 6112
        },
        {
            "buffer" : 0,
            "byteLength" : 408,
            "byteOffset" : 6292
        },
        {
            "buffer" : 0,
            "byteLength" : 408,
            "byteOffset" : 6700
        },
        {
            "buffer" : 0,
            "byteLength" : 272,
            "byteOffset" : 7108
        },
        {
            "buffer" : 0,
            "byteLength" : 168,
            "byteOffset" : 7380
        },
        {
            "buffer" : 0,
            "byteLength" : 264,
            "byteOffset" : 7548
        },
        {
            "buffer" : 0,
            "byteLength" : 264,
            "byteOffset" : 7812
        },
        {
            "buffer" : 0,
            "byteLength" : 176,
            "byteOffset" : 8076
        },
        {
            "buffer" : 0,
            "byteLength" : 96,
            "byteOffset" : 8252
        }
    ],
    "buffers" : [
        {
            "byteLength" : 8348,
            "uri" : "data:application/octet-stream;base64,"
        }
    ]
}
