{
    "asset" : {
        "generator" : "Khronos glTF Blender I/O v3.2.43",
        "version" : "2.0"
    },
    "scene" : 0,
    "scenes" : [
        {
            "name" : "Scene",
            "nodes" : [
                0
            ]
        }
    ],
    "nodes" : [
        {
            "mesh" : 0,
            "name" : "roadTile_194",
            "rotation" : [
                0.7071068286895752,
                0,
                0,
                0.7071067094802856
            ]
        }
    ],
    "materials" : [
        {
            "doubleSided" : true,
            "name" : "Asphalt",
            "pbrMetallicRoughness" : {
                "baseColorFactor" : [
                    0.4117650091648102,
                    0.4117650091648102,
                    0.4117650091648102,
                    1
                ],
                "metallicFactor" : 0
            }
        },
        {
            "doubleSided" : true,
            "name" : "Stone",
            "pbrMetallicRoughness" : {
                "baseColorFactor" : [
                    0.8470590114593506,
                    0.8274509906768799,
                    0.749019980430603,
                    1
                ],
                "metallicFactor" : 0
            }
        },
        {
            "doubleSided" : true,
            "name" : "Grass",
            "pbrMetallicRoughness" : {
                "baseColorFactor" : [
                    0.5411760210990906,
                    0.7098039984703064,
                    0.2862749993801117,
                    1
                ],
                "metallicFactor" : 0
            }
        }
    ],
    "meshes" : [
        {
            "name" : "roadTile_194",
            "primitives" : [
                {
                    "attributes" : {
                        "POSITION" : 0,
                        "NORMAL" : 1,
                        "TEXCOORD_0" : 2
                    },
                    "indices" : 3,
                    "material" : 0
                },
                {
                    "attributes" : {
                        "POSITION" : 4,
                        "NORMAL" : 5,
                        "TEXCOORD_0" : 6
                    },
                    "indices" : 7,
                    "material" : 1
                },
                {
                    "attributes" : {
                        "POSITION" : 8,
                        "NORMAL" : 9,
                        "TEXCOORD_0" : 10
                    },
                    "indices" : 11,
                    "material" : 2
                }
            ]
        }
    ],
    "accessors" : [
        {
            "bufferView" : 0,
            "componentType" : 5126,
            "count" : 24,
            "max" : [
                3,
                -5.587930118622353e-09,
                -0.30000001192092896
            ],
            "min" : [
                3.1764101440269477e-14,
                -3,
                -1.7000000476837158
            ],
            "type" : "VEC3"
        },
        {
            "bufferView" : 1,
            "componentType" : 5126,
            "count" : 24,
            "type" : "VEC3"
        },
        {
            "bufferView" : 2,
            "componentType" : 5126,
            "count" : 24,
            "type" : "VEC2"
        },
        {
            "bufferView" : 3,
            "componentType" : 5123,
            "count" : 36,
            "type" : "SCALAR"
        },
        {
            "bufferView" : 4,
            "componentType" : 5126,
            "count" : 140,
            "max" : [
                3,
                0,
                0
            ],
            "min" : [
                1.732589969389263e-14,
                -3,
                -1.7300000190734863
            ],
            "type" : "VEC3"
        },
        {
            "bufferView" : 5,
            "componentType" : 5126,
            "count" : 140,
            "type" : "VEC3"
        },
        {
            "bufferView" : 6,
            "componentType" : 5126,
            "count" : 140,
            "type" : "VEC2"
        },
        {
            "bufferView" : 7,
            "componentType" : 5123,
            "count" : 294,
            "type" : "SCALAR"
        },
        {
            "bufferView" : 8,
            "componentType" : 5126,
            "count" : 56,
            "max" : [
                3,
                0,
                0
            ],
            "min" : [
                0,
                -3,
                -1.649999976158142
            ],
            "type" : "VEC3"
        },
        {
            "bufferView" : 9,
            "componentType" : 5126,
            "count" : 56,
            "type" : "VEC3"
        },
        {
            "bufferView" : 10,
            "componentType" : 5126,
            "count" : 56,
            "type" : "VEC2"
        },
        {
            "bufferView" : 11,
            "componentType" : 5123,
            "count" : 102,
            "type" : "SCALAR"
        }
    ],
    "bufferViews" : [
        {
            "buffer" : 0,
            "byteLength" : 288,
            "byteOffset" : 0
        },
        {
            "buffer" : 0,
            "byteLength" : 288,
            "byteOffset" : 288
        },
        {
            "buffer" : 0,
            "byteLength" : 192,
            "byteOffset" : 576
        },
        {
            "buffer" : 0,
            "byteLength" : 72,
            "byteOffset" : 768
        },
        {
            "buffer" : 0,
            "byteLength" : 1680,
            "byteOffset" : 840
        },
        {
            "buffer" : 0,
            "byteLength" : 1680,
            "byteOffset" : 2520
        },
        {
            "buffer" : 0,
            "byteLength" : 1120,
            "byteOffset" : 4200
        },
        {
            "buffer" : 0,
            "byteLength" : 588,
            "byteOffset" : 5320
        },
        {
            "buffer" : 0,
            "byteLength" : 672,
            "byteOffset" : 5908
        },
        {
            "buffer" : 0,
            "byteLength" : 672,
            "byteOffset" : 6580
        },
        {
            "buffer" : 0,
            "byteLength" : 448,
            "byteOffset" : 7252
        },
        {
            "buffer" : 0,
            "byteLength" : 204,
            "byteOffset" : 7700
        }
    ],
    "buffers" : [
        {
            "byteLength" : 7904,
            "uri" : "data:application/octet-stream;base64,"
        }
    ]
}
