{
    "asset" : {
        "generator" : "Khronos glTF Blender I/O v3.2.43",
        "version" : "2.0"
    },
    "scene" : 0,
    "scenes" : [
        {
            "name" : "Scene",
            "nodes" : [
                0
            ]
        }
    ],
    "nodes" : [
        {
            "mesh" : 0,
            "name" : "roadTile_206",
            "rotation" : [
                0.7071068286895752,
                0,
                0,
                0.7071067094802856
            ]
        }
    ],
    "materials" : [
        {
            "doubleSided" : true,
            "name" : "Stone",
            "pbrMetallicRoughness" : {
                "baseColorFactor" : [
                    0.8470590114593506,
                    0.8274509906768799,
                    0.749019980430603,
                    1
                ],
                "metallicFactor" : 0
            }
        },
        {
            "doubleSided" : true,
            "name" : "Grass",
            "pbrMetallicRoughness" : {
                "baseColorFactor" : [
                    0.5411760210990906,
                    0.7098039984703064,
                    0.2862749993801117,
                    1
                ],
                "metallicFactor" : 0
            }
        },
        {
            "doubleSided" : true,
            "name" : "Water",
            "pbrMetallicRoughness" : {
                "baseColorFactor" : [
                    0.6901959776878357,
                    0.8431370258331299,
                    0.9647060036659241,
                    1
                ],
                "metallicFactor" : 0
            }
        }
    ],
    "meshes" : [
        {
            "name" : "roadTile_206",
            "primitives" : [
                {
                    "attributes" : {
                        "POSITION" : 0,
                        "NORMAL" : 1,
                        "TEXCOORD_0" : 2
                    },
                    "indices" : 3,
                    "material" : 0
                },
                {
                    "attributes" : {
                        "POSITION" : 4,
                        "NORMAL" : 5,
                        "TEXCOORD_0" : 6
                    },
                    "indices" : 7,
                    "material" : 1
                },
                {
                    "attributes" : {
                        "POSITION" : 8,
                        "NORMAL" : 9,
                        "TEXCOORD_0" : 10
                    },
                    "indices" : 11,
                    "material" : 2
                }
            ]
        }
    ],
    "accessors" : [
        {
            "bufferView" : 0,
            "componentType" : 5126,
            "count" : 48,
            "max" : [
                3,
                -0.375,
                0
            ],
            "min" : [
                7.796640123878401e-14,
                -2.625,
                -1.7300000190734863
            ],
            "type" : "VEC3"
        },
        {
            "bufferView" : 1,
            "componentType" : 5126,
            "count" : 48,
            "type" : "VEC3"
        },
        {
            "bufferView" : 2,
            "componentType" : 5126,
            "count" : 48,
            "type" : "VEC2"
        },
        {
            "bufferView" : 3,
            "componentType" : 5123,
            "count" : 84,
            "type" : "SCALAR"
        },
        {
            "bufferView" : 4,
            "componentType" : 5126,
            "count" : 44,
            "max" : [
                3,
                0,
                0
            ],
            "min" : [
                0,
                -3,
                -1.649999976158142
            ],
            "type" : "VEC3"
        },
        {
            "bufferView" : 5,
            "componentType" : 5126,
            "count" : 44,
            "type" : "VEC3"
        },
        {
            "bufferView" : 6,
            "componentType" : 5126,
            "count" : 44,
            "type" : "VEC2"
        },
        {
            "bufferView" : 7,
            "componentType" : 5123,
            "count" : 78,
            "type" : "SCALAR"
        },
        {
            "bufferView" : 8,
            "componentType" : 5126,
            "count" : 12,
            "max" : [
                3,
                -0.75,
                0
            ],
            "min" : [
                7.796640123878401e-14,
                -2.25,
                -0.45500001311302185
            ],
            "type" : "VEC3"
        },
        {
            "bufferView" : 9,
            "componentType" : 5126,
            "count" : 12,
            "type" : "VEC3"
        },
        {
            "bufferView" : 10,
            "componentType" : 5126,
            "count" : 12,
            "type" : "VEC2"
        },
        {
            "bufferView" : 11,
            "componentType" : 5123,
            "count" : 18,
            "type" : "SCALAR"
        }
    ],
    "bufferViews" : [
        {
            "buffer" : 0,
            "byteLength" : 576,
            "byteOffset" : 0
        },
        {
            "buffer" : 0,
            "byteLength" : 576,
            "byteOffset" : 576
        },
        {
            "buffer" : 0,
            "byteLength" : 384,
            "byteOffset" : 1152
        },
        {
            "buffer" : 0,
            "byteLength" : 168,
            "byteOffset" : 1536
        },
        {
            "buffer" : 0,
            "byteLength" : 528,
            "byteOffset" : 1704
        },
        {
            "buffer" : 0,
            "byteLength" : 528,
            "byteOffset" : 2232
        },
        {
            "buffer" : 0,
            "byteLength" : 352,
            "byteOffset" : 2760
        },
        {
            "buffer" : 0,
            "byteLength" : 156,
            "byteOffset" : 3112
        },
        {
            "buffer" : 0,
            "byteLength" : 144,
            "byteOffset" : 3268
        },
        {
            "buffer" : 0,
            "byteLength" : 144,
            "byteOffset" : 3412
        },
        {
            "buffer" : 0,
            "byteLength" : 96,
            "byteOffset" : 3556
        },
        {
            "buffer" : 0,
            "byteLength" : 36,
            "byteOffset" : 3652
        }
    ],
    "buffers" : [
        {
            "byteLength" : 3688,
            "uri" : "data:application/octet-stream;base64,"
        }
    ]
}
